<?xml version="1.0" encoding="UTF-8" standalone="no"?><!DOCTYPE svg PUBLIC "-//W3C//DTD SVG 1.1//EN" "http://www.w3.org/Graphics/SVG/1.1/DTD/svg11.dtd"><svg width="100%" height="100%" viewBox="0 0 921 761" version="1.1" xmlns="http://www.w3.org/2000/svg" xmlns:xlink="http://www.w3.org/1999/xlink" xml:space="preserve" xmlns:serif="http://www.serif.com/" style="fill-rule:evenodd;clip-rule:evenodd;stroke-linecap:square;stroke-miterlimit:100;"><rect id="Монтажная-область1" serif:id="Монтажная область1" x="0" y="0" width="920.968" height="760.148" style="fill:none;"/><g><rect x="0" y="0" width="920.968" height="760.148" style="fill:#ebebeb;"/><text x="517.58px" y="168.5px" style="font-family:'ArialMT', 'Arial', sans-serif;font-size:9px;fill:#000080;">Arduino_Nano</text><rect x="470" y="171.5" width="105" height="150" style="fill:none;stroke:#8c2424;stroke-width:1px;"/><path d="M585,276.5l-10,0" style="fill:none;fill-rule:nonzero;stroke:#8c2424;stroke-width:1px;stroke-linecap:round;stroke-linejoin:round;"/><path d="M585,266.5l-10,0" style="fill:none;fill-rule:nonzero;stroke:#8c2424;stroke-width:1px;stroke-linecap:round;stroke-linejoin:round;"/><path d="M460,216.5l10,0" style="fill:none;fill-rule:nonzero;stroke:#8c2424;stroke-width:1px;stroke-linecap:round;stroke-linejoin:round;"/><path d="M460,226.5l10,0" style="fill:none;fill-rule:nonzero;stroke:#8c2424;stroke-width:1px;stroke-linecap:round;stroke-linejoin:round;"/><path d="M585,206.5l-10,0" style="fill:none;fill-rule:nonzero;stroke:#8c2424;stroke-width:1px;stroke-linecap:round;stroke-linejoin:round;"/><path d="M460,236.5l10,0" style="fill:none;fill-rule:nonzero;stroke:#8c2424;stroke-width:1px;stroke-linecap:round;stroke-linejoin:round;"/><path d="M585,196.5l-10,0" style="fill:none;fill-rule:nonzero;stroke:#8c2424;stroke-width:1px;stroke-linecap:round;stroke-linejoin:round;"/><path d="M460,246.5l10,0" style="fill:none;fill-rule:nonzero;stroke:#8c2424;stroke-width:1px;stroke-linecap:round;stroke-linejoin:round;"/><path d="M460,256.5l10,0" style="fill:none;fill-rule:nonzero;stroke:#8c2424;stroke-width:1px;stroke-linecap:round;stroke-linejoin:round;"/><path d="M460,206.5l10,0" style="fill:none;fill-rule:nonzero;stroke:#8c2424;stroke-width:1px;stroke-linecap:round;stroke-linejoin:round;"/><text x="548.877px" y="279.5px" style="font-family:'Verdana', sans-serif;font-size:9px;fill:#8d2323;">D2</text><text x="548.877px" y="269.5px" style="font-family:'Verdana', sans-serif;font-size:9px;fill:#8d2323;">D3</text><text x="473px" y="219.5px" style="font-family:'Verdana', sans-serif;font-size:9px;fill:#8d2323;">A1</text><text x="473px" y="229.5px" style="font-family:'Verdana', sans-serif;font-size:9px;fill:#8d2323;">A2</text><text x="552.937px" y="209.5px" style="font-family:'Verdana', sans-serif;font-size:9px;fill:#8d2323;">D9</text><text x="473px" y="239.5px" style="font-family:'Verdana', sans-serif;font-size:9px;fill:#8d2323;">A3</text><text x="547.215px" y="199.504px" style="font-family:'Verdana', sans-serif;font-size:9px;fill:#8d2323;">D10</text><text x="473px" y="249.5px" style="font-family:'Verdana', sans-serif;font-size:9px;fill:#8d2323;">A4</text><text x="473px" y="259.5px" style="font-family:'Verdana', sans-serif;font-size:9px;fill:#8d2323;">A5</text><text x="473px" y="209.5px" style="font-family:'Verdana', sans-serif;font-size:9px;fill:#8d2323;">A0</text><g><text x="743.03px" y="253.5px" style="font-family:'ArialMT', 'Arial', sans-serif;font-size:9px;fill:#000080;">DHT</text><g><text x="761.527px" y="253.5px" style="font-family:'ArialMT', 'Arial', sans-serif;font-size:9px;fill:#000080;">1</text><text x="765.864px" y="253.5px" style="font-family:'ArialMT', 'Arial', sans-serif;font-size:9px;fill:#000080;">1</text></g></g><path d="M717,256.5l76,0c1.105,0 2,0.895 2,2l0,46c0,1.105 -1.105,2 -2,2l-76,0c-1.105,0 -2,-1.105 -2,-2l0,-46c0,-1.105 1.105,-2 2,-2" style="fill:none;fill-rule:nonzero;stroke:#870000;stroke-width:1px;"/><path d="M705,266.5l10,0" style="fill:none;fill-rule:nonzero;stroke:#f00;stroke-width:1px;stroke-linecap:round;stroke-linejoin:round;"/><path d="M705,276.5l10,0" style="fill:none;fill-rule:nonzero;stroke:#870000;stroke-width:1px;stroke-linecap:round;stroke-linejoin:round;"/><path d="M705,296.5l10,0" style="fill:none;fill-rule:nonzero;stroke:#000;stroke-width:1px;stroke-linecap:round;stroke-linejoin:round;"/><text x="718.7px" y="270.5px" style="font-family:'Verdana', sans-serif;font-size:9px;fill:#f00;">VDD</text><g><g><g><text x="718.7px" y="280.5px" style="font-family:'Verdana', sans-serif;font-size:9px;fill:#00f;">DA</text><text x="731.26px" y="280.5px" style="font-family:'Verdana', sans-serif;font-size:9px;fill:#00f;">T</text></g><text x="737.333px" y="280.5px" style="font-family:'Verdana', sans-serif;font-size:9px;fill:#00f;">A</text></g></g><g><text x="718.7px" y="300.5px" style="font-family:'Verdana', sans-serif;font-size:9px;">GND</text></g><g><text x="204.52px" y="223.16px" style="font-family:'ArialMT', 'Arial', sans-serif;font-size:9px;fill:#000080;">ADXL</text><text x="227.697px" y="223.16px" style="font-family:'ArialMT', 'Arial', sans-serif;font-size:9px;fill:#000080;">345</text></g><text x="167.564px" y="273.635px" style="font-family:'ArialMT', 'Arial', sans-serif;font-size:16px;fill:#000080;">ADXL<tspan x="208.767px 213.212px " y="273.635px 273.635px "> 3</tspan>45</text><path d="M127,226.5l166,0c1.105,0 2,0.895 2,2l0,76c0,1.105 -1.105,2 -2,2l-166,0c-1.105,0 -2,-1.105 -2,-2l0,-76c0,-1.105 1.105,-2 2,-2" style="fill:none;fill-rule:nonzero;stroke:#870000;stroke-width:1px;"/><path d="M115,236.5l10,0" style="fill:none;fill-rule:nonzero;stroke:#f00;stroke-width:1px;stroke-linecap:round;stroke-linejoin:round;"/><path d="M115,276.5l10,0" style="fill:none;fill-rule:nonzero;stroke:#000;stroke-width:1px;stroke-linecap:round;stroke-linejoin:round;"/><path d="M305,246.5l-10,0" style="fill:none;fill-rule:nonzero;stroke:#870000;stroke-width:1px;stroke-linecap:round;stroke-linejoin:round;"/><path d="M305,236.5l-10,0" style="fill:none;fill-rule:nonzero;stroke:#870000;stroke-width:1px;stroke-linecap:round;stroke-linejoin:round;"/><path d="M305,246.5l155,0" style="fill:none;fill-rule:nonzero;stroke:#008700;stroke-width:1px;stroke-linecap:round;stroke-linejoin:round;"/><path d="M80,206.5l0,10" style="fill:none;fill-rule:nonzero;stroke:#000;stroke-width:1px;stroke-linecap:round;stroke-linejoin:round;"/><path d="M75,206.5l10,0" style="fill:none;fill-rule:nonzero;stroke:#000;stroke-width:1px;stroke-linecap:round;stroke-linejoin:round;"/><path d="M80,216.5l0,20l35,0" style="fill:none;fill-rule:nonzero;stroke:#008700;stroke-width:1px;stroke-linecap:round;stroke-linejoin:round;"/><path d="M80,311.5l0,-10" style="fill:none;fill-rule:nonzero;stroke:#000;stroke-width:1px;stroke-linecap:round;stroke-linejoin:round;"/><path d="M71,311.5l18,0" style="fill:none;fill-rule:nonzero;stroke:#000;stroke-width:1px;stroke-linecap:round;stroke-linejoin:round;"/><path d="M74,313.5l12,0" style="fill:none;fill-rule:nonzero;stroke:#000;stroke-width:1px;stroke-linecap:round;stroke-linejoin:round;"/><path d="M77,315.5l6,0" style="fill:none;fill-rule:nonzero;stroke:#000;stroke-width:1px;stroke-linecap:round;stroke-linejoin:round;"/><path d="M79,317.5l2,0" style="fill:none;fill-rule:nonzero;stroke:#000;stroke-width:1px;stroke-linecap:round;stroke-linejoin:round;"/><path d="M80,301.5l0,-25" style="fill:none;fill-rule:nonzero;stroke:#008700;stroke-width:1px;stroke-linecap:round;stroke-linejoin:round;"/><path d="M115,276.5l-35,0" style="fill:none;fill-rule:nonzero;stroke:#008700;stroke-width:1px;stroke-linecap:round;stroke-linejoin:round;"/><text x="128.7px" y="240.5px" style="font-family:'Verdana', sans-serif;font-size:9px;fill:#f00;">VDDI/O</text><text x="128.7px" y="280.5px" style="font-family:'Verdana', sans-serif;font-size:9px;">GND</text><text x="259.871px" y="250.324px" style="font-family:'Verdana', sans-serif;font-size:9px;fill:#00f;">SDA</text><text x="261.541px" y="240.324px" style="font-family:'Verdana', sans-serif;font-size:9px;fill:#00f;">SCL</text><text x="69.49px" y="204.5px" style="font-family:'ArialMT', 'Arial', sans-serif;font-size:12px;">+5V</text><text x="67px" y="335.236px" style="font-family:'ArialMT', 'Arial', sans-serif;font-size:12px;">GND</text><text x="690px" y="239.5px" style="font-family:'ArialMT', 'Arial', sans-serif;font-size:12px;">+5V</text><g><text x="687px" y="347.5px" style="font-family:'ArialMT', 'Arial', sans-serif;font-size:12px;">GND</text><text x="615.728px" y="377.942px" style="font-family:'ArialMT', 'Arial', sans-serif;font-size:9px;fill:#000080;">BUZZER</text></g><g><text x="754.63px" y="90.5px" style="font-family:'Verdana', sans-serif;font-size:9px;fill:#00f;">RF</text></g><g><text x="753.88px" y="110.5px" style="font-family:'Verdana', sans-serif;font-size:9px;fill:#00f;">RX</text></g><g><text x="754.59px" y="120.5px" style="font-family:'Verdana', sans-serif;font-size:9px;fill:#00f;">TX</text></g><text x="693.7px" y="100.5px" style="font-family:'Verdana', sans-serif;font-size:9px;">GND</text><text x="693.7px" y="90.5px" style="font-family:'Verdana', sans-serif;font-size:9px;fill:#f00;">VCC</text><text x="836.097px" y="56.5px" style="font-family:'ArialMT', 'Arial', sans-serif;font-size:9px;fill:#000080;">ANT</text><path d="M585,276.5l120,0" style="fill:none;fill-rule:nonzero;stroke:#008700;stroke-width:1px;stroke-linecap:round;stroke-linejoin:round;"/><path d="M700,241.5l0,10" style="fill:none;fill-rule:nonzero;stroke:#000;stroke-width:1px;stroke-linecap:round;stroke-linejoin:round;"/><path d="M695,241.5l10,0" style="fill:none;fill-rule:nonzero;stroke:#000;stroke-width:1px;stroke-linecap:round;stroke-linejoin:round;"/><path d="M700,331.5l0,-10" style="fill:none;fill-rule:nonzero;stroke:#000;stroke-width:1px;stroke-linecap:round;stroke-linejoin:round;"/><path d="M691,331.5l18,0" style="fill:none;fill-rule:nonzero;stroke:#000;stroke-width:1px;stroke-linecap:round;stroke-linejoin:round;"/><path d="M694,333.5l12,0" style="fill:none;fill-rule:nonzero;stroke:#000;stroke-width:1px;stroke-linecap:round;stroke-linejoin:round;"/><path d="M697,335.5l6,0" style="fill:none;fill-rule:nonzero;stroke:#000;stroke-width:1px;stroke-linecap:round;stroke-linejoin:round;"/><path d="M699,337.5l2,0" style="fill:none;fill-rule:nonzero;stroke:#000;stroke-width:1px;stroke-linecap:round;stroke-linejoin:round;"/><path d="M700,321.5l0,-25l5,0" style="fill:none;fill-rule:nonzero;stroke:#008700;stroke-width:1px;stroke-linecap:round;stroke-linejoin:round;"/><path d="M700,251.5l0,15l5,0" style="fill:none;fill-rule:nonzero;stroke:#008700;stroke-width:1px;stroke-linecap:round;stroke-linejoin:round;"/><path d="M637,351.5l0,5l8,10l-30,0l8,-10l0,-5" style="fill:none;fill-rule:nonzero;stroke:#000;stroke-width:1px;stroke-linecap:round;stroke-linejoin:round;"/><path d="M625,336.5l0,15" style="fill:none;fill-rule:nonzero;stroke:#000;stroke-width:1px;stroke-linecap:round;stroke-linejoin:round;"/><path d="M635,336.5l0,15" style="fill:none;fill-rule:nonzero;stroke:#000;stroke-width:1px;stroke-linecap:round;stroke-linejoin:round;"/><path d="M637,351.5l-14,0" style="fill:none;fill-rule:nonzero;stroke:#000;stroke-width:1px;stroke-linecap:round;stroke-linejoin:round;"/><path d="M780,86.5l-10,0" style="fill:none;fill-rule:nonzero;stroke:#870000;stroke-width:1px;stroke-linecap:round;stroke-linejoin:round;"/><path d="M780,106.5l-10,0" style="fill:none;fill-rule:nonzero;stroke:#870000;stroke-width:1px;stroke-linecap:round;stroke-linejoin:round;"/><path d="M780,116.5l-10,0" style="fill:none;fill-rule:nonzero;stroke:#870000;stroke-width:1px;stroke-linecap:round;stroke-linejoin:round;"/><path d="M680,96.5l10,0" style="fill:none;fill-rule:nonzero;stroke:#000;stroke-width:1px;stroke-linecap:round;stroke-linejoin:round;"/><path d="M680,86.5l10,0" style="fill:none;fill-rule:nonzero;stroke:#f00;stroke-width:1px;stroke-linecap:round;stroke-linejoin:round;"/><path d="M692,76.5l76,0c1.105,0 2,0.895 2,2l0,86c0,1.105 -1.105,2 -2,2l-76,0c-1.105,0 -2,-1.105 -2,-2l0,-86c0,-1.105 1.105,-2 2,-2" style="fill:none;fill-rule:nonzero;stroke:#870000;stroke-width:1px;"/><path d="M820,66.5l-10,-10" style="fill:none;fill-rule:nonzero;stroke:#8c2424;stroke-width:1px;stroke-linecap:round;stroke-linejoin:round;"/><path d="M830,56.5l-10,10" style="fill:none;fill-rule:nonzero;stroke:#8c2424;stroke-width:1px;stroke-linecap:round;stroke-linejoin:round;"/><path d="M820,66.5l0,10" style="fill:none;fill-rule:nonzero;stroke:#8c2424;stroke-width:1px;stroke-linecap:round;stroke-linejoin:round;"/><path d="M820,86.5l0,-10" style="fill:none;fill-rule:nonzero;stroke:#8c2424;stroke-width:1px;stroke-linecap:round;stroke-linejoin:round;"/><path d="M820,66.5l0,-15" style="fill:none;fill-rule:nonzero;stroke:#870000;stroke-width:1px;stroke-linecap:round;stroke-linejoin:round;"/><path d="M820,51.5l0,10" style="fill:none;fill-rule:nonzero;stroke:#870000;stroke-width:1px;stroke-linecap:round;stroke-linejoin:round;"/><path d="M635,336.5l0,-40l65,0" style="fill:none;fill-rule:nonzero;stroke:#008700;stroke-width:1px;stroke-linecap:round;stroke-linejoin:round;"/><path d="M585,266.5l40,0l0,70" style="fill:none;fill-rule:nonzero;stroke:#008700;stroke-width:1px;stroke-linecap:round;stroke-linejoin:round;"/><path d="M585,206.5l235,0l0,-100l-40,0" style="fill:none;fill-rule:nonzero;stroke:#008700;stroke-width:1px;stroke-linecap:round;stroke-linejoin:round;"/><path d="M780,116.5l30,0l0,80l-225,0" style="fill:none;fill-rule:nonzero;stroke:#008700;stroke-width:1px;stroke-linecap:round;stroke-linejoin:round;"/><path d="M655,166.5l0,-10" style="fill:none;fill-rule:nonzero;stroke:#000;stroke-width:1px;stroke-linecap:round;stroke-linejoin:round;"/><path d="M646,166.5l18,0" style="fill:none;fill-rule:nonzero;stroke:#000;stroke-width:1px;stroke-linecap:round;stroke-linejoin:round;"/><path d="M649,168.5l12,0" style="fill:none;fill-rule:nonzero;stroke:#000;stroke-width:1px;stroke-linecap:round;stroke-linejoin:round;"/><path d="M652,170.5l6,0" style="fill:none;fill-rule:nonzero;stroke:#000;stroke-width:1px;stroke-linecap:round;stroke-linejoin:round;"/><path d="M654,172.5l2,0" style="fill:none;fill-rule:nonzero;stroke:#000;stroke-width:1px;stroke-linecap:round;stroke-linejoin:round;"/><path d="M655,61.5l0,10" style="fill:none;fill-rule:nonzero;stroke:#000;stroke-width:1px;stroke-linecap:round;stroke-linejoin:round;"/><path d="M650,61.5l10,0" style="fill:none;fill-rule:nonzero;stroke:#000;stroke-width:1px;stroke-linecap:round;stroke-linejoin:round;"/><path d="M655,71.5l0,15l25,0" style="fill:none;fill-rule:nonzero;stroke:#008700;stroke-width:1px;stroke-linecap:round;stroke-linejoin:round;"/><path d="M680,96.5l-25,0l0,60" style="fill:none;fill-rule:nonzero;stroke:#008700;stroke-width:1px;stroke-linecap:round;stroke-linejoin:round;"/><path d="M620,96.5l0,6" style="fill:none;fill-rule:nonzero;stroke:#8c2424;stroke-width:1px;stroke-linecap:round;stroke-linejoin:round;"/><path d="M620,116.5l0,-7" style="fill:none;fill-rule:nonzero;stroke:#8c2424;stroke-width:1px;stroke-linecap:round;stroke-linejoin:round;"/><text x="642px" y="182.5px" style="font-family:'ArialMT', 'Arial', sans-serif;font-size:12px;">GND</text><text x="645px" y="59.5px" style="font-family:'ArialMT', 'Arial', sans-serif;font-size:12px;">+5V</text><text x="629.19px" y="118.75px" style="font-family:'ArialMT', 'Arial', sans-serif;font-size:9px;fill:#000080;">470u</text><text x="629.2px" y="109.74px" style="font-family:'ArialMT', 'Arial', sans-serif;font-size:9px;fill:#000080;">C1</text><text x="54.19px" y="268.84px" style="font-family:'ArialMT', 'Arial', sans-serif;font-size:9px;fill:#000080;">100u</text><text x="54.2px" y="259.71px" style="font-family:'ArialMT', 'Arial', sans-serif;font-size:9px;fill:#000080;">C2</text><g><g><g><g transform="matrix(0,-1,1,0,-204.21,700.21)"><text x="248px" y="452.21px" style="font-family:'Verdana', sans-serif;font-size:9px;fill:#00f;">VCC</text></g></g></g></g><g><g><g><g transform="matrix(0,-1,1,0,-224.71,680.71)"><text x="228px" y="452.71px" style="font-family:'Verdana', sans-serif;font-size:9px;fill:#00f;">OUT</text></g></g></g></g><g><g><g><g transform="matrix(0,-1,1,0,-216.14,692.14)"><text x="238px" y="454.14px" style="font-family:'Verdana', sans-serif;font-size:9px;fill:#00f;">GND</text></g></g></g></g><g><g><g><g><g><g transform="matrix(0,-1,1,0,-226.61,760.89)"><text x="267.14px" y="493.75px" style="font-family:'Verdana', sans-serif;font-size:9px;fill:#00f;">GUV</text></g></g><g><g transform="matrix(0,-1,1,0,-207.155,741.435)"><text x="267.14px" y="474.295px" style="font-family:'Verdana', sans-serif;font-size:9px;fill:#00f;">A</text></g></g></g></g><g><g><g transform="matrix(0,-1,1,0,-200.739,735.019)"><text x="267.14px" y="467.879px" style="font-family:'Verdana', sans-serif;font-size:9px;fill:#00f;">-S12SD</text></g></g></g></g></g><text x="406.92px" y="514.75px" style="font-family:'ArialMT', 'Arial', sans-serif;font-size:9px;fill:#000080;">Sensor MQ-135</text><g><g><g><g transform="matrix(0,-1,1,0,9.95,906.05)"><text x="458px" y="448.05px" style="font-family:'Verdana', sans-serif;font-size:7px;fill:#00f;">VCC</text></g></g></g></g><g><g><g><g transform="matrix(0,-1,1,0,-1.55,897.55)"><text x="448px" y="449.55px" style="font-family:'Verdana', sans-serif;font-size:7px;fill:#00f;">GND</text></g></g></g></g><g><g><g><g transform="matrix(0,-1,1,0,-14.73,870.73)"><text x="428px" y="442.73px" style="font-family:'Verdana', sans-serif;font-size:7px;fill:#00f;">A0</text></g></g></g></g><rect x="612.5" y="107.5" width="14.7" height="1.8" style="fill:#8c2424;stroke:#8c2424;stroke-width:1px;"/><rect x="612.5" y="102.5" width="14.7" height="1.8" style="fill:none;stroke:#8c2424;stroke-width:1px;"/><path d="M620,86.5l0,10" style="fill:none;fill-rule:nonzero;stroke:#8c2424;stroke-width:1px;stroke-linecap:round;stroke-linejoin:round;"/><path d="M620,126.5l0,-10" style="fill:none;fill-rule:nonzero;stroke:#8c2424;stroke-width:1px;stroke-linecap:round;stroke-linejoin:round;"/><rect x="623" y="98.5" width="4" height="0.1" style="fill:#8c2424;stroke:#8c2424;stroke-width:1px;"/><rect x="624.9" y="96.5" width="0.1" height="4" style="fill:#8c2424;stroke:#8c2424;stroke-width:1px;"/><path d="M620,126.5l35,0" style="fill:none;fill-rule:nonzero;stroke:#008700;stroke-width:1px;stroke-linecap:round;stroke-linejoin:round;"/><path d="M45,246.5l0,6" style="fill:none;fill-rule:nonzero;stroke:#8c2424;stroke-width:1px;stroke-linecap:round;stroke-linejoin:round;"/><path d="M45,266.5l0,-7" style="fill:none;fill-rule:nonzero;stroke:#8c2424;stroke-width:1px;stroke-linecap:round;stroke-linejoin:round;"/><rect x="37.5" y="257.5" width="14.7" height="1.8" style="fill:#8c2424;stroke:#8c2424;stroke-width:1px;"/><rect x="37.5" y="252.5" width="14.7" height="1.8" style="fill:none;stroke:#8c2424;stroke-width:1px;"/><path d="M45,236.5l0,10" style="fill:none;fill-rule:nonzero;stroke:#8c2424;stroke-width:1px;stroke-linecap:round;stroke-linejoin:round;"/><path d="M45,276.5l0,-10" style="fill:none;fill-rule:nonzero;stroke:#8c2424;stroke-width:1px;stroke-linecap:round;stroke-linejoin:round;"/><rect x="48" y="248.5" width="4" height="0.1" style="fill:#8c2424;stroke:#8c2424;stroke-width:1px;"/><rect x="49.9" y="246.5" width="0.1" height="4" style="fill:#8c2424;stroke:#8c2424;stroke-width:1px;"/><path d="M45,236.5l35,0" style="fill:none;fill-rule:nonzero;stroke:#008700;stroke-width:1px;stroke-linecap:round;stroke-linejoin:round;"/><path d="M45,276.5l35,0" style="fill:none;fill-rule:nonzero;stroke:#008700;stroke-width:1px;stroke-linecap:round;stroke-linejoin:round;"/><path d="M245,411.5l0,20" style="fill:none;fill-rule:nonzero;stroke:#870000;stroke-width:1px;stroke-linecap:round;stroke-linejoin:round;"/><path d="M225,411.5l0,20" style="fill:none;fill-rule:nonzero;stroke:#870000;stroke-width:1px;stroke-linecap:round;stroke-linejoin:round;"/><path d="M235,411.5l0,20" style="fill:none;fill-rule:nonzero;stroke:#870000;stroke-width:1px;stroke-linecap:round;stroke-linejoin:round;"/><path d="M255,431.5l-40,0l0,70l40,0l0,-70" style="fill:none;fill-rule:nonzero;stroke:#000;stroke-width:1px;stroke-linecap:round;stroke-linejoin:round;"/><path d="M455,411.5l0,20" style="fill:none;fill-rule:nonzero;stroke:#870000;stroke-width:1px;stroke-linecap:round;stroke-linejoin:round;"/><path d="M445,411.5l0,20" style="fill:none;fill-rule:nonzero;stroke:#870000;stroke-width:1px;stroke-linecap:round;stroke-linejoin:round;"/><path d="M425,411.5l0,20" style="fill:none;fill-rule:nonzero;stroke:#870000;stroke-width:1px;stroke-linecap:round;stroke-linejoin:round;"/><rect x="415" y="431.5" width="50" height="70" style="fill:none;stroke:#000;stroke-width:1px;"/><path d="M455,481.5c0,-8.28 -6.72,-15 -15,-15c-8.28,0 -15,6.72 -15,15c0,8.28 6.72,15 15,15c8.28,0 15,-6.72 15,-15" style="fill:none;fill-rule:nonzero;stroke:#000;stroke-width:1px;"/><path d="M390,411.5l0,20" style="fill:none;fill-rule:nonzero;stroke:#870000;stroke-width:1px;stroke-linecap:round;stroke-linejoin:round;"/><path d="M380,411.5l0,20" style="fill:none;fill-rule:nonzero;stroke:#870000;stroke-width:1px;stroke-linecap:round;stroke-linejoin:round;"/><path d="M360,411.5l0,20" style="fill:none;fill-rule:nonzero;stroke:#870000;stroke-width:1px;stroke-linecap:round;stroke-linejoin:round;"/><text x="347.27px" y="514.75px" style="font-family:'ArialMT', 'Arial', sans-serif;font-size:9px;fill:#000080;">Sensor MQ-6</text><g><g><g><g transform="matrix(0,-1,1,0,-55.05,841.05)"><text x="393px" y="448.05px" style="font-family:'Verdana', sans-serif;font-size:7px;fill:#00f;">VCC</text></g></g></g></g><g><g><g><g transform="matrix(0,-1,1,0,-66.55,832.55)"><text x="383px" y="449.55px" style="font-family:'Verdana', sans-serif;font-size:7px;fill:#00f;">GND</text></g></g></g></g><g><g><g><g transform="matrix(0,-1,1,0,-79.73,805.73)"><text x="363px" y="442.73px" style="font-family:'Verdana', sans-serif;font-size:7px;fill:#00f;">A0</text></g></g></g></g><g><text x="479.49px" y="359.5px" style="font-family:'ArialMT', 'Arial', sans-serif;font-size:12px;">+5V</text><text x="477px" y="462.5px" style="font-family:'ArialMT', 'Arial', sans-serif;font-size:12px;">GND</text></g><g><text x="64.186px" y="594.754px" style="font-family:'ArialMT', 'Arial', sans-serif;font-size:9px;fill:#000080;">HC-12 433Mhz Wireless</text><text x="684.784px" y="69.906px" style="font-family:'ArialMT', 'Arial', sans-serif;font-size:9px;fill:#000080;">HC-12 433Mhz Wireless</text></g><text x="167.496px" y="632.309px" style="font-family:'Verdana', sans-serif;font-size:9px;fill:#00f;">TXD</text><text x="166.786px" y="652.309px" style="font-family:'Verdana', sans-serif;font-size:9px;fill:#00f;">RXD</text><text x="165.496px" y="672.309px" style="font-family:'Verdana', sans-serif;font-size:9px;fill:#00f;">GND</text><text x="167.426px" y="692.309px" style="font-family:'Verdana', sans-serif;font-size:9px;fill:#00f;">VCC</text><rect x="350" y="431.5" width="50" height="70" style="fill:none;stroke:#000;stroke-width:1px;"/><path d="M390,481.5c0,-8.28 -6.72,-15 -15,-15c-8.28,0 -15,6.72 -15,15c0,8.28 6.72,15 15,15c8.28,0 15,-6.72 15,-15" style="fill:none;fill-rule:nonzero;stroke:#000;stroke-width:1px;"/><path d="M490,361.5l0,10" style="fill:none;fill-rule:nonzero;stroke:#000;stroke-width:1px;stroke-linecap:round;stroke-linejoin:round;"/><path d="M485,361.5l10,0" style="fill:none;fill-rule:nonzero;stroke:#000;stroke-width:1px;stroke-linecap:round;stroke-linejoin:round;"/><path d="M490,446.5l0,-10" style="fill:none;fill-rule:nonzero;stroke:#000;stroke-width:1px;stroke-linecap:round;stroke-linejoin:round;"/><path d="M481,446.5l18,0" style="fill:none;fill-rule:nonzero;stroke:#000;stroke-width:1px;stroke-linecap:round;stroke-linejoin:round;"/><path d="M484,448.5l12,0" style="fill:none;fill-rule:nonzero;stroke:#000;stroke-width:1px;stroke-linecap:round;stroke-linejoin:round;"/><path d="M487,450.5l6,0" style="fill:none;fill-rule:nonzero;stroke:#000;stroke-width:1px;stroke-linecap:round;stroke-linejoin:round;"/><path d="M489,452.5l2,0" style="fill:none;fill-rule:nonzero;stroke:#000;stroke-width:1px;stroke-linecap:round;stroke-linejoin:round;"/><path d="M235,411.5l0,-10l255,0l0,35" style="fill:none;fill-rule:nonzero;stroke:#008700;stroke-width:1px;stroke-linecap:round;stroke-linejoin:round;"/><path d="M445,411.5l0,-10" style="fill:none;fill-rule:nonzero;stroke:#008700;stroke-width:1px;stroke-linecap:round;stroke-linejoin:round;"/><path d="M380,411.5l0,-10" style="fill:none;fill-rule:nonzero;stroke:#008700;stroke-width:1px;stroke-linecap:round;stroke-linejoin:round;"/><path d="M315,411.5l0,-10" style="fill:none;fill-rule:nonzero;stroke:#008700;stroke-width:1px;stroke-linecap:round;stroke-linejoin:round;"/><path d="M245,411.5l0,-25l245,0l0,-15" style="fill:none;fill-rule:nonzero;stroke:#008700;stroke-width:1px;stroke-linecap:round;stroke-linejoin:round;"/><path d="M325,411.5l0,-25" style="fill:none;fill-rule:nonzero;stroke:#008700;stroke-width:1px;stroke-linecap:round;stroke-linejoin:round;"/><path d="M390,411.5l0,-25" style="fill:none;fill-rule:nonzero;stroke:#008700;stroke-width:1px;stroke-linecap:round;stroke-linejoin:round;"/><path d="M455,411.5l0,-25" style="fill:none;fill-rule:nonzero;stroke:#008700;stroke-width:1px;stroke-linecap:round;stroke-linejoin:round;"/><path d="M425,411.5l0,-175l35,0" style="fill:none;fill-rule:nonzero;stroke:#008700;stroke-width:1px;stroke-linecap:round;stroke-linejoin:round;"/><path d="M620,86.5l35,0" style="fill:none;fill-rule:nonzero;stroke:#008700;stroke-width:1px;stroke-linecap:round;stroke-linejoin:round;"/><path d="M208.136,629.309l-10,0" style="fill:none;fill-rule:nonzero;stroke:#870000;stroke-width:0.79px;stroke-linecap:round;stroke-linejoin:round;"/><path d="M208.136,649.309l-10,0" style="fill:none;fill-rule:nonzero;stroke:#870000;stroke-width:0.79px;stroke-linecap:round;stroke-linejoin:round;"/><path d="M208.136,669.309l-10,0" style="fill:none;fill-rule:nonzero;stroke:#870000;stroke-width:0.79px;stroke-linecap:round;stroke-linejoin:round;"/><path d="M208.136,689.309l-10,0" style="fill:none;fill-rule:nonzero;stroke:#870000;stroke-width:0.79px;stroke-linecap:round;stroke-linejoin:round;"/><rect x="28.136" y="599.309" width="170" height="100" style="fill:none;stroke:#000;stroke-width:1px;"/><g><text x="68.126px" y="651.519px" style="font-family:'Verdana', sans-serif;font-size:12px;fill:#000080;">HC</text><text x="85.23px" y="651.519px" style="font-family:'Verdana', sans-serif;font-size:12px;fill:#000080;">-12 433Mhz</text></g><g><text x="331.896px" y="612.559px" style="font-family:'ArialMT', 'Arial', sans-serif;font-size:9px;fill:#000080;">USB to UAR</text><text x="381.748px" y="612.559px" style="font-family:'ArialMT', 'Arial', sans-serif;font-size:9px;fill:#000080;">T</text></g><path d="M310.136,619.309l96,0c1.105,0 2,0.895 2,2l0,46c0,1.105 -1.105,2 -2,2l-96,0c-1.105,0 -2,-1.105 -2,-2l0,-46c0,-1.105 1.105,-2 2,-2" style="fill:none;fill-rule:nonzero;stroke:#870000;stroke-width:1px;"/><path d="M298.136,649.309l10,0" style="fill:none;fill-rule:nonzero;stroke:#870000;stroke-width:1px;stroke-linecap:round;stroke-linejoin:round;"/><path d="M298.136,659.309l10,0" style="fill:none;fill-rule:nonzero;stroke:#870000;stroke-width:1px;stroke-linecap:round;stroke-linejoin:round;"/><path d="M418.136,659.309l-10,0" style="fill:none;fill-rule:nonzero;stroke:#000;stroke-width:1px;stroke-linecap:round;stroke-linejoin:round;"/><path d="M418.136,649.309l-10,0" style="fill:none;fill-rule:nonzero;stroke:#000;stroke-width:1px;stroke-linecap:round;stroke-linejoin:round;"/><path d="M418.136,629.309l-10,0" style="fill:none;fill-rule:nonzero;stroke:#870000;stroke-width:1px;stroke-linecap:round;stroke-linejoin:round;"/><path d="M208.136,629.309l45,0l0,30l45,0" style="fill:none;fill-rule:nonzero;stroke:#008700;stroke-width:1px;stroke-linecap:round;stroke-linejoin:round;"/><path d="M208.136,649.309l90,0" style="fill:none;fill-rule:nonzero;stroke:#008700;stroke-width:1px;stroke-linecap:round;stroke-linejoin:round;"/><g><text x="311.836px" y="653.309px" style="font-family:'Verdana', sans-serif;font-size:9px;fill:#00f;">TXD</text></g><g><text x="311.836px" y="663.309px" style="font-family:'Verdana', sans-serif;font-size:9px;fill:#00f;">RXD</text></g><text x="383.796px" y="663.309px" style="font-family:'Verdana', sans-serif;font-size:9px;">GND</text><text x="383.796px" y="653.309px" style="font-family:'Verdana', sans-serif;font-size:9px;">GND</text><text x="385.216px" y="633.309px" style="font-family:'Verdana', sans-serif;font-size:9px;fill:#00f;">+5V</text><text x="780.753px" y="713.75px" style="font-family:'ArialMT', 'Arial', sans-serif;font-size:9px;fill:#000080;">Battery</text><text x="780.753px" y="704.75px" style="font-family:'ArialMT', 'Arial', sans-serif;font-size:9px;fill:#000080;">LIPO</text><g><g><g><g transform="matrix(0,-1,1,0,111.806,1212.14)"><text x="661.973px" y="550.167px" style="font-family:'ArialMT', 'Arial', sans-serif;font-size:9px;fill:#000080;">boost_converter</text></g></g></g></g><path d="M208.136,669.309l40,0l0,10l170,0l0,-30" style="fill:none;fill-rule:nonzero;stroke:#008700;stroke-width:1px;stroke-linecap:round;stroke-linejoin:round;"/><path d="M208.136,689.309l220,0l0,-60l-10,0" style="fill:none;fill-rule:nonzero;stroke:#008700;stroke-width:1px;stroke-linecap:round;stroke-linejoin:round;"/><path d="M768.753,671.5l0,20" style="fill:none;fill-rule:nonzero;stroke:#870000;stroke-width:1px;stroke-linecap:round;stroke-linejoin:round;"/><path d="M768.753,731.5l0,-20" style="fill:none;fill-rule:nonzero;stroke:#870000;stroke-width:1px;stroke-linecap:round;stroke-linejoin:round;"/><path d="M758.753,691.5l20,0" style="fill:none;fill-rule:nonzero;stroke:#870000;stroke-width:1px;stroke-linecap:round;stroke-linejoin:round;"/><path d="M758.753,711.5l20,0" style="fill:none;fill-rule:nonzero;stroke:#870000;stroke-width:1px;stroke-linecap:round;stroke-linejoin:round;"/><path d="M763.753,696.5l10,0" style="fill:none;fill-rule:nonzero;stroke:#870000;stroke-width:1px;stroke-linecap:round;stroke-linejoin:round;"/><path d="M758.753,701.5l20,0" style="fill:none;fill-rule:nonzero;stroke:#870000;stroke-width:1px;stroke-linecap:round;stroke-linejoin:round;"/><path d="M763.753,706.5l10,0" style="fill:none;fill-rule:nonzero;stroke:#870000;stroke-width:1px;stroke-linecap:round;stroke-linejoin:round;"/><rect x="623.753" y="441.5" width="68" height="150" style="fill:none;stroke:#000;stroke-width:1px;"/><path d="M643.753,421.5l0,20" style="fill:none;fill-rule:nonzero;stroke:#000;stroke-width:1px;stroke-linecap:round;stroke-linejoin:round;"/><path d="M673.753,421.5l0,20" style="fill:none;fill-rule:nonzero;stroke:#000;stroke-width:1px;stroke-linecap:round;stroke-linejoin:round;"/><path d="M643.753,611.5l0,-20" style="fill:none;fill-rule:nonzero;stroke:#870000;stroke-width:1px;stroke-linecap:round;stroke-linejoin:round;"/><path d="M673.753,611.5l0,-20" style="fill:none;fill-rule:nonzero;stroke:#870000;stroke-width:1px;stroke-linecap:round;stroke-linejoin:round;"/><g><g><g><g transform="matrix(0,-1,1,0,173.236,1120.27)"><text x="646.753px" y="473.517px" style="font-family:'Verdana', sans-serif;font-size:9px;fill:#00f;">VCC in</text></g></g></g></g><g><g><g><g transform="matrix(0,-1,1,0,201.306,1152.2)"><text x="676.753px" y="475.447px" style="font-family:'Verdana', sans-serif;font-size:9px;fill:#00f;">GND in</text></g></g></g></g><g><g><g><g transform="matrix(0,-1,1,0,57.2558,1236.25)"><text x="646.753px" y="589.497px" style="font-family:'Verdana', sans-serif;font-size:9px;fill:#00f;">VCC out</text></g></g></g></g><g><g><g><g transform="matrix(0,-1,1,0,87.2558,1266.25)"><text x="676.753px" y="589.497px" style="font-family:'Verdana', sans-serif;font-size:9px;fill:#00f;">GND out</text></g></g></g></g><g><g><g><g transform="matrix(0,-1,1,0,249.696,1374.23)"><text x="811.963px" y="562.267px" style="font-family:'ArialMT', 'Arial', sans-serif;font-size:9px;fill:#000080;">Controller charge</text></g></g></g></g><rect x="718.753" y="441.5" width="80" height="170" style="fill:#ffc;stroke:#000;stroke-width:1px;"/><path d="M788.753,421.5l0,20" style="fill:none;fill-rule:nonzero;stroke:#870000;stroke-width:1px;stroke-linecap:round;stroke-linejoin:round;"/><path d="M738.753,421.5l0,20" style="fill:none;fill-rule:nonzero;stroke:#870000;stroke-width:1px;stroke-linecap:round;stroke-linejoin:round;"/><path d="M728.753,631.5l0,-20" style="fill:none;fill-rule:nonzero;stroke:#870000;stroke-width:1px;stroke-linecap:round;stroke-linejoin:round;"/><path d="M748.753,631.5l0,-20" style="fill:none;fill-rule:nonzero;stroke:#870000;stroke-width:1px;stroke-linecap:round;stroke-linejoin:round;"/><path d="M768.753,631.5l0,-20" style="fill:none;fill-rule:nonzero;stroke:#870000;stroke-width:1px;stroke-linecap:round;stroke-linejoin:round;"/><path d="M788.753,631.5l0,-20" style="fill:none;fill-rule:nonzero;stroke:#870000;stroke-width:1px;stroke-linecap:round;stroke-linejoin:round;"/><path d="M788.753,421.5l0,-25l-145,0l0,25" style="fill:none;fill-rule:nonzero;stroke:#008700;stroke-width:1px;stroke-linecap:round;stroke-linejoin:round;"/><path d="M673.753,421.5l0,-10l65,0l0,10" style="fill:none;fill-rule:nonzero;stroke:#008700;stroke-width:1px;stroke-linecap:round;stroke-linejoin:round;"/><g><g><g><g transform="matrix(0,-1,1,0,327.416,1256.09)"><text x="791.753px" y="464.337px" style="font-family:'Verdana', sans-serif;font-size:9px;fill:#00f;">vin+</text></g></g></g></g><g><g><g><g transform="matrix(0,-1,1,0,280.696,1202.81)"><text x="741.753px" y="461.057px" style="font-family:'Verdana', sans-serif;font-size:9px;fill:#00f;">vin-</text></g></g></g></g><g><g><g><g><g transform="matrix(0,-1,1,0,122.256,1341.25)"><text x="731.753px" y="609.497px" style="font-family:'Verdana', sans-serif;font-size:9px;fill:#00f;">out</text></g></g></g><g><g><g transform="matrix(0,-1,1,0,136.786,1326.72)"><text x="731.753px" y="594.967px" style="font-family:'Verdana', sans-serif;font-size:9px;fill:#00f;">-</text></g></g></g></g></g><g><g><g><g transform="matrix(0,-1,1,0,142.256,1361.25)"><text x="751.753px" y="609.497px" style="font-family:'Verdana', sans-serif;font-size:9px;fill:#00f;">B-</text></g></g></g></g><g><g><g><g transform="matrix(0,-1,1,0,162.256,1381.25)"><text x="771.753px" y="609.497px" style="font-family:'Verdana', sans-serif;font-size:9px;fill:#00f;">B+</text></g></g></g></g><g><g><g><g transform="matrix(0,-1,1,0,182.256,1401.25)"><text x="791.753px" y="609.497px" style="font-family:'Verdana', sans-serif;font-size:9px;fill:#00f;">out+</text></g></g></g></g><text x="831.783px" y="633.94px" style="font-family:'ArialMT', 'Arial', sans-serif;font-size:9px;fill:#000080;">PWR</text><path d="M830.763,636.938l26,0c1.105,0 2,0.895 2,2l0,36c0,1.104 -1.105,2 -2,2l-26,0c-1.105,0 -2,-1.105 -2,-2l0,-36c0,-1.105 1.105,-2 2,-2" style="fill:none;fill-rule:nonzero;stroke:#870000;stroke-width:1px;"/><g><text x="830.763px" y="649.06px" style="font-family:'Verdana', sans-serif;font-size:9px;fill:#00f;">GND</text><text x="830.513px" y="669.06px" style="font-family:'Verdana', sans-serif;font-size:9px;fill:#00f;">5V</text></g><text x="660.753px" y="662.5px" style="font-family:'ArialMT', 'Arial', sans-serif;font-size:12px;">GND</text><text x="563.753px" y="564.5px" style="font-family:'ArialMT', 'Arial', sans-serif;font-size:12px;">+5V</text><text x="582.053px" y="608.5px" style="font-family:'ArialMT', 'Arial', sans-serif;font-size:9px;fill:#000080;">PWR Switch</text><g><g><g><g transform="matrix(0,-1,1,0,-124.21,780.21)"><text x="328px" y="452.21px" style="font-family:'Verdana', sans-serif;font-size:9px;fill:#00f;">VCC</text></g></g></g></g><g><g><g><g transform="matrix(0,-1,1,0,-144.71,760.71)"><text x="308px" y="452.71px" style="font-family:'Verdana', sans-serif;font-size:9px;fill:#00f;">OUT</text></g></g></g></g><g><g><g><g transform="matrix(0,-1,1,0,-136.14,772.14)"><text x="318px" y="454.14px" style="font-family:'Verdana', sans-serif;font-size:9px;fill:#00f;">GND</text></g></g></g></g><g><g><g><g transform="matrix(0,-1,1,0,-206.5,786.5)"><text x="290px" y="496.5px" style="font-family:'Verdana', sans-serif;font-size:9px;fill:#00f;">light intensity</text></g></g></g></g><path d="M818.753,646.5l10,0" style="fill:none;fill-rule:nonzero;stroke:#870000;stroke-width:1px;stroke-linecap:round;stroke-linejoin:round;"/><path d="M818.753,666.5l10,0" style="fill:none;fill-rule:nonzero;stroke:#870000;stroke-width:1px;stroke-linecap:round;stroke-linejoin:round;"/><path d="M768.753,671.5l0,-40" style="fill:none;fill-rule:nonzero;stroke:#008700;stroke-width:1px;stroke-linecap:round;stroke-linejoin:round;"/><path d="M748.753,631.5l0,100l20,0" style="fill:none;fill-rule:nonzero;stroke:#008700;stroke-width:1px;stroke-linecap:round;stroke-linejoin:round;"/><path d="M818.753,646.5l-90,0l0,-15" style="fill:none;fill-rule:nonzero;stroke:#008700;stroke-width:1px;stroke-linecap:round;stroke-linejoin:round;"/><path d="M788.753,631.5l0,35l30,0" style="fill:none;fill-rule:nonzero;stroke:#008700;stroke-width:1px;stroke-linecap:round;stroke-linejoin:round;"/><path d="M673.753,646.5l0,-10" style="fill:none;fill-rule:nonzero;stroke:#000;stroke-width:1px;stroke-linecap:round;stroke-linejoin:round;"/><path d="M664.753,646.5l18,0" style="fill:none;fill-rule:nonzero;stroke:#000;stroke-width:1px;stroke-linecap:round;stroke-linejoin:round;"/><path d="M667.753,648.5l12,0" style="fill:none;fill-rule:nonzero;stroke:#000;stroke-width:1px;stroke-linecap:round;stroke-linejoin:round;"/><path d="M670.753,650.5l6,0" style="fill:none;fill-rule:nonzero;stroke:#000;stroke-width:1px;stroke-linecap:round;stroke-linejoin:round;"/><path d="M672.753,652.5l2,0" style="fill:none;fill-rule:nonzero;stroke:#000;stroke-width:1px;stroke-linecap:round;stroke-linejoin:round;"/><path d="M673.753,636.5l0,-25" style="fill:none;fill-rule:nonzero;stroke:#008700;stroke-width:1px;stroke-linecap:round;stroke-linejoin:round;"/><path d="M573.753,566.5l0,10" style="fill:none;fill-rule:nonzero;stroke:#000;stroke-width:1px;stroke-linecap:round;stroke-linejoin:round;"/><path d="M568.753,566.5l10,0" style="fill:none;fill-rule:nonzero;stroke:#000;stroke-width:1px;stroke-linecap:round;stroke-linejoin:round;"/><path d="M780,86.5l40,0" style="fill:none;fill-rule:nonzero;stroke:#008700;stroke-width:1px;stroke-linecap:round;stroke-linejoin:round;"/><path d="M578.753,616.5l17.5,-5" style="fill:none;fill-rule:nonzero;stroke:#000;stroke-width:1px;stroke-linecap:round;stroke-linejoin:round;"/><path d="M573.753,616.5l5,0" style="fill:none;fill-rule:nonzero;stroke:#000;stroke-width:1px;stroke-linecap:round;stroke-linejoin:round;"/><path d="M601.753,616.5l-5,0" style="fill:none;fill-rule:nonzero;stroke:#000;stroke-width:1px;stroke-linecap:round;stroke-linejoin:round;"/><path d="M579.753,616.5c0,-0.55 -0.45,-1 -1,-1c-0.55,0 -1,0.45 -1,1c0,0.55 0.45,1 1,1c0.55,0 1,-0.45 1,-1" style="fill:none;fill-rule:nonzero;stroke:#000;stroke-width:1px;stroke-linecap:round;stroke-linejoin:round;"/><path d="M597.753,616.5c0,-0.55 -0.45,-1 -1,-1c-0.55,0 -1,0.45 -1,1c0,0.55 0.45,1 1,1c0.55,0 1,-0.45 1,-1" style="fill:none;fill-rule:nonzero;stroke:#000;stroke-width:1px;stroke-linecap:round;stroke-linejoin:round;"/><path d="M601.753,616.5l42,0l0,-5" style="fill:none;fill-rule:nonzero;stroke:#008700;stroke-width:1px;stroke-linecap:round;stroke-linejoin:round;"/><path d="M573.753,616.5l0,-40" style="fill:none;fill-rule:nonzero;stroke:#008700;stroke-width:1px;stroke-linecap:round;stroke-linejoin:round;"/><path d="M360,411.5l0,-185l100,0" style="fill:none;fill-rule:nonzero;stroke:#008700;stroke-width:1px;stroke-linecap:round;stroke-linejoin:round;"/><path d="M305,411.5l0,-35l45,0l0,-160l110,0" style="fill:none;fill-rule:nonzero;stroke:#008700;stroke-width:1px;stroke-linecap:round;stroke-linejoin:round;"/><path d="M460,206.5l-120,0l0,160l-115,0l0,45" style="fill:none;fill-rule:nonzero;stroke:#008700;stroke-width:1px;stroke-linecap:round;stroke-linejoin:round;"/><path d="M305,236.5l90,0l0,20l65,0" style="fill:none;fill-rule:nonzero;stroke:#008700;stroke-width:1px;stroke-linecap:round;stroke-linejoin:round;"/><path d="M325,411.5l0,20" style="fill:none;fill-rule:nonzero;stroke:#870000;stroke-width:1px;stroke-linecap:round;stroke-linejoin:round;"/><path d="M305,411.5l0,20" style="fill:none;fill-rule:nonzero;stroke:#870000;stroke-width:1px;stroke-linecap:round;stroke-linejoin:round;"/><path d="M315,411.5l0,20" style="fill:none;fill-rule:nonzero;stroke:#870000;stroke-width:1px;stroke-linecap:round;stroke-linejoin:round;"/><path d="M335,431.5l-40,0l0,70l40,0l0,-70" style="fill:none;fill-rule:nonzero;stroke:#000;stroke-width:1px;stroke-linecap:round;stroke-linejoin:round;"/><path d="M82.5,276.5c0,-1.38 -1.12,-2.5 -2.5,-2.5c-1.38,0 -2.5,1.12 -2.5,2.5c0,1.38 1.12,2.5 2.5,2.5c1.38,0 2.5,-1.12 2.5,-2.5" style="fill:#c00;fill-rule:nonzero;"/><path d="M702.5,296.5c0,-1.38 -1.12,-2.5 -2.5,-2.5c-1.38,0 -2.5,1.12 -2.5,2.5c0,1.38 1.12,2.5 2.5,2.5c1.38,0 2.5,-1.12 2.5,-2.5" style="fill:#c00;fill-rule:nonzero;"/><path d="M657.5,86.5c0,-1.38 -1.12,-2.5 -2.5,-2.5c-1.38,0 -2.5,1.12 -2.5,2.5c0,1.38 1.12,2.5 2.5,2.5c1.38,0 2.5,-1.12 2.5,-2.5" style="fill:#c00;fill-rule:nonzero;"/><path d="M657.5,126.5c0,-1.38 -1.12,-2.5 -2.5,-2.5c-1.38,0 -2.5,1.12 -2.5,2.5c0,1.38 1.12,2.5 2.5,2.5c1.38,0 2.5,-1.12 2.5,-2.5" style="fill:#c00;fill-rule:nonzero;"/><path d="M82.5,236.5c0,-1.38 -1.12,-2.5 -2.5,-2.5c-1.38,0 -2.5,1.12 -2.5,2.5c0,1.38 1.12,2.5 2.5,2.5c1.38,0 2.5,-1.12 2.5,-2.5" style="fill:#c00;fill-rule:nonzero;"/><path d="M447.5,401.5c0,-1.38 -1.12,-2.5 -2.5,-2.5c-1.38,0 -2.5,1.12 -2.5,2.5c0,1.38 1.12,2.5 2.5,2.5c1.38,0 2.5,-1.12 2.5,-2.5" style="fill:#c00;fill-rule:nonzero;"/><path d="M382.5,401.5c0,-1.38 -1.12,-2.5 -2.5,-2.5c-1.38,0 -2.5,1.12 -2.5,2.5c0,1.38 1.12,2.5 2.5,2.5c1.38,0 2.5,-1.12 2.5,-2.5" style="fill:#c00;fill-rule:nonzero;"/><path d="M317.5,401.5c0,-1.38 -1.12,-2.5 -2.5,-2.5c-1.38,0 -2.5,1.12 -2.5,2.5c0,1.38 1.12,2.5 2.5,2.5c1.38,0 2.5,-1.12 2.5,-2.5" style="fill:#c00;fill-rule:nonzero;"/><path d="M327.5,386.5c0,-1.38 -1.12,-2.5 -2.5,-2.5c-1.38,0 -2.5,1.12 -2.5,2.5c0,1.38 1.12,2.5 2.5,2.5c1.38,0 2.5,-1.12 2.5,-2.5" style="fill:#c00;fill-rule:nonzero;"/><path d="M392.5,386.5c0,-1.38 -1.12,-2.5 -2.5,-2.5c-1.38,0 -2.5,1.12 -2.5,2.5c0,1.38 1.12,2.5 2.5,2.5c1.38,0 2.5,-1.12 2.5,-2.5" style="fill:#c00;fill-rule:nonzero;"/><path d="M457.5,386.5c0,-1.38 -1.12,-2.5 -2.5,-2.5c-1.38,0 -2.5,1.12 -2.5,2.5c0,1.38 1.12,2.5 2.5,2.5c1.38,0 2.5,-1.12 2.5,-2.5" style="fill:#c00;fill-rule:nonzero;"/><path d="M420.636,659.309c0,-1.38 -1.12,-2.5 -2.5,-2.5c-1.38,0 -2.5,1.12 -2.5,2.5c0,1.38 1.12,2.5 2.5,2.5c1.38,0 2.5,-1.12 2.5,-2.5" style="fill:#c00;fill-rule:nonzero;"/><text x="24.248px" y="58.303px" style="font-family:'ArialMT', 'Arial', sans-serif;font-size:24px;">Remote Sensor Board electric diagram</text></g></svg>